<?xml version="1.0" encoding="UTF-8" standalone="no"?>
<!-- Created with Inkscape (http://www.inkscape.org/) -->

<svg
   xmlns:dc="http://purl.org/dc/elements/1.1/"
   xmlns:cc="http://creativecommons.org/ns#"
   xmlns:rdf="http://www.w3.org/1999/02/22-rdf-syntax-ns#"
   xmlns:svg="http://www.w3.org/2000/svg"
   xmlns="http://www.w3.org/2000/svg"
   xmlns:xlink="http://www.w3.org/1999/xlink"
   version="1.2"
   width="744.09448"
   height="1052.3622"
   id="svg2">
  <defs
     id="defs4">
    <filter
       color-interpolation-filters="sRGB"
       id="filter4120">
      <feGaussianBlur
         stdDeviation="0.77118307"
         id="feGaussianBlur4122" />
    </filter>
    <filter
       color-interpolation-filters="sRGB"
       id="filter4128">
      <feGaussianBlur
         stdDeviation="0.77118307"
         id="feGaussianBlur4130" />
    </filter>
    <filter
       color-interpolation-filters="sRGB"
       id="filter4140">
      <feGaussianBlur
         stdDeviation="0.77118307"
         id="feGaussianBlur4142" />
    </filter>
  </defs>
  <metadata
     id="metadata7">
    <rdf:RDF>
      <cc:Work
         rdf:about="">
        <dc:format>image/svg+xml</dc:format>
        <dc:type
           rdf:resource="http://purl.org/dc/dcmitype/StillImage" />
        <dc:title></dc:title>
      </cc:Work>
    </rdf:RDF>
  </metadata>
  <g
     id="layer1">
    <text
       x="152.28571"
       y="386.64789"
       id="text2985"
       xml:space="preserve"
       style="font-size:40px;font-style:normal;font-weight:normal;line-height:125%;letter-spacing:0px;word-spacing:0px;fill:#000000;fill-opacity:1;stroke:none;filter:url(#filter4120);font-family:Sans"><tspan
         x="152.28571"
         y="386.64789"
         id="tspan2987" /></text>
    <flowRoot
       transform="translate(78,0)"
       id="flowRoot2989"
       xml:space="preserve"
       style="font-size:40px;font-style:normal;font-weight:normal;line-height:125%;letter-spacing:0px;word-spacing:0px;fill:#000000;fill-opacity:1;stroke:none;font-family:Sans"><flowRegion
         id="flowRegion2991"><rect
           width="328.16901"
           height="195.77464"
           x="49.295776"
           y="445.31992"
           id="rect2993" /></flowRegion><flowPara
         id="flowPara2995"
         style="font-size:72px">ath raq</flowPara></flowRoot>    <flowRoot
       transform="translate(78,0)"
       id="flowRoot2997"
       xml:space="preserve"
       style="font-size:40px;font-style:normal;font-weight:normal;line-height:125%;letter-spacing:0px;word-spacing:0px;fill:#000000;fill-opacity:1;stroke:none;filter:url(#filter4128);font-family:Sans"><flowRegion
         id="flowRegion2999"><rect
           width="47"
           height="169"
           x="143"
           y="672.36218"
           id="rect3001" /></flowRegion><flowPara
         id="flowPara3003" /></flowRoot>    <path
       d="m 116.14597,714.33728 a 63,57.5 0 0 1 2.86267,-114.96773"
       transform="matrix(1.4217426,0,0,1,22.804157,-159)"
       id="path3007"
       style="fill:none;stroke:#28220b;stroke-width:10.67500019;stroke-miterlimit:4;stroke-opacity:1;stroke-dasharray:none" />
    <flowRoot
       transform="translate(78,0)"
       id="flowRoot3781"
       xml:space="preserve"
       style="font-size:40px;font-style:normal;font-weight:normal;line-height:125%;letter-spacing:0px;word-spacing:0px;fill:#000000;fill-opacity:1;stroke:none;filter:url(#filter4140);font-family:Sans"><flowRegion
         id="flowRegion3783"><rect
           width="14"
           height="59"
           x="147"
           y="729.36218"
           id="rect3785" /></flowRegion><flowPara
         id="flowPara3787" /></flowRoot>    <g
       transform="matrix(0.33118228,0,0,0.4050744,307.89161,455.85302)"
       id="g6406"
       style="overflow:visible">
      <path
         d="m 159.913,201.463 c 46.575,34.697 81.758,46.493 113.893,40.593 32.136,-5.896 43.344,-20.908 51.146,-43.534 7.796,-22.623 -3.806,-55.9 -3.806,-55.9 l 3.648,1.54 c 0.02,0.054 8.407,20.434 8.079,43.782 -0.328,23.455 -13.369,56.591 -48.773,68.401 -29.503,9.84 -60.632,-2.016 -84.554,-14.339 -23.979,-12.357 -40.692,-27.127 -40.738,-27.167 l 1.105,-13.376"
         id="path6012"
         style="fill:#d1d3d4" />
      <g
         id="g6014">
        <defs
           id="defs6016">
          <path
             d="m 159.913,201.463 c 46.575,34.697 81.758,46.493 113.893,40.593 32.136,-5.896 43.344,-20.908 51.146,-43.534 7.796,-22.623 -3.806,-55.9 -3.806,-55.9 l 3.648,1.54 c 0.02,0.054 8.407,20.434 8.079,43.782 -0.328,23.455 -13.369,56.591 -48.773,68.401 -29.503,9.84 -60.632,-2.016 -84.554,-14.339 -23.979,-12.357 -40.692,-27.127 -40.738,-27.167 l 1.105,-13.376"
             id="XMLID_1_" />
        </defs>
        <clipPath
           id="XMLID_33_">
          <use
             id="use6020"
             x="0"
             y="0"
             width="1"
             height="1"
             xlink:href="#XMLID_1_" />
        </clipPath>
        <rect
           width="15.846"
           height="35.683998"
           x="267.17599"
           y="234.33099"
           clip-path="url(#XMLID_33_)"
           id="rect6022"
           style="fill:#ffffff" />
      </g>
      <g
         id="g6024">
        <defs
           id="defs6026">
          <polyline
             points="308.499,78.451 322.073,80.844 279.638,321.547 266.063,319.15 308.499,78.451   "
             id="XMLID_3_" />
        </defs>
        <clipPath
           id="XMLID_34_">
          <use
             id="use6030"
             x="0"
             y="0"
             width="1"
             height="1"
             xlink:href="#XMLID_3_" />
        </clipPath>
        <g
           clip-path="url(#XMLID_34_)"
           id="g6032">
          <defs
             id="defs6034">
            <path
               d="m 159.913,201.463 c 46.575,34.697 81.758,46.493 113.893,40.593 32.136,-5.896 43.344,-20.908 51.146,-43.534 7.796,-22.623 -3.806,-55.9 -3.806,-55.9 l 3.648,1.54 c 0.02,0.054 8.407,20.434 8.079,43.782 -0.328,23.455 -13.369,56.591 -48.773,68.401 -29.503,9.84 -60.632,-2.016 -84.554,-14.339 -23.979,-12.357 -40.692,-27.127 -40.738,-27.167 l 1.105,-13.376"
               id="XMLID_5_" />
          </defs>
          <clipPath
             id="XMLID_35_">
            <use
               id="use6038"
               x="0"
               y="0"
               width="1"
               height="1"
               xlink:href="#XMLID_5_" />
          </clipPath>
          <polyline
             id="polyline6040"
             points="268.327,319.539 266.063,319.141 308.509,78.443 310.771,78.842       "
             clip-path="url(#XMLID_35_)"
             style="fill:#6d6f71" />
          <polyline
             id="polyline6042"
             points="270.59,319.938 268.327,319.539 310.771,78.842 313.034,79.24   "
             clip-path="url(#XMLID_35_)"
             style="fill:#808284" />
          <polyline
             id="polyline6044"
             points="272.854,320.338 270.59,319.938 313.034,79.24 315.297,79.64   "
             clip-path="url(#XMLID_35_)"
             style="fill:#939598" />
          <polyline
             id="polyline6046"
             points="275.118,320.736 272.854,320.338 315.297,79.64 317.558,80.041       "
             clip-path="url(#XMLID_35_)"
             style="fill:#a7a9ac" />
          <polyline
             id="polyline6048"
             points="277.379,321.138 275.118,320.736 317.558,80.041 319.821,80.438       "
             clip-path="url(#XMLID_35_)"
             style="fill:#bcbec0" />
          <polyline
             id="polyline6050"
             points="279.642,321.537 277.379,321.138 319.821,80.438 322.086,80.837       "
             clip-path="url(#XMLID_35_)"
             style="fill:#d1d3d4" />
        </g>
      </g>
      <g
         id="g6052">
        <defs
           id="defs6054">
          <polyline
             points="288.964,78.451 302.537,80.844 260.1,321.547 246.524,319.15 288.964,78.451   "
             id="XMLID_7_" />
        </defs>
        <clipPath
           id="XMLID_36_">
          <use
             id="use6058"
             x="0"
             y="0"
             width="1"
             height="1"
             xlink:href="#XMLID_7_" />
        </clipPath>
        <g
           clip-path="url(#XMLID_36_)"
           id="g6060">
          <defs
             id="defs6062">
            <path
               d="m 159.913,201.463 c 46.575,34.697 81.758,46.493 113.893,40.593 32.136,-5.896 43.344,-20.908 51.146,-43.534 7.796,-22.623 -3.806,-55.9 -3.806,-55.9 l 3.648,1.54 c 0.02,0.054 8.407,20.434 8.079,43.782 -0.328,23.455 -13.369,56.591 -48.773,68.401 -29.503,9.84 -60.632,-2.016 -84.554,-14.339 -23.979,-12.357 -40.692,-27.127 -40.738,-27.167 l 1.105,-13.376"
               id="XMLID_9_" />
          </defs>
          <clipPath
             id="XMLID_37_">
            <use
               id="use6066"
               x="0"
               y="0"
               width="1"
               height="1"
               xlink:href="#XMLID_9_" />
          </clipPath>
          <polyline
             id="polyline6068"
             points="300.27,80.451 302.531,80.849 260.09,321.549 257.825,321.149   "
             clip-path="url(#XMLID_37_)"
             style="fill:#6d6f71" />
          <polyline
             id="polyline6070"
             points="298.006,80.053 300.27,80.451 257.825,321.149 255.562,320.751       "
             clip-path="url(#XMLID_37_)"
             style="fill:#808284" />
          <polyline
             id="polyline6072"
             points="295.738,79.654 298.006,80.053 255.562,320.751 253.299,320.35       "
             clip-path="url(#XMLID_37_)"
             style="fill:#939598" />
          <polyline
             id="polyline6074"
             points="293.479,79.256 295.738,79.654 253.299,320.35 251.037,319.95   "
             clip-path="url(#XMLID_37_)"
             style="fill:#a7a9ac" />
          <polyline
             id="polyline6076"
             points="291.215,78.854 293.479,79.256 251.037,319.95 248.773,319.552       "
             clip-path="url(#XMLID_37_)"
             style="fill:#bcbec0" />
          <polyline
             id="polyline6078"
             points="288.952,78.456 291.215,78.854 248.773,319.552 246.511,319.153       "
             clip-path="url(#XMLID_37_)"
             style="fill:#d1d3d4" />
        </g>
      </g>
      <g
         id="g6080">
        <defs
           id="defs6082">
          <polyline
             points="208.387,15.168 221.962,17.562 179.522,258.263 165.949,255.872 208.387,15.168   "
             id="XMLID_11_" />
        </defs>
        <clipPath
           id="XMLID_38_">
          <use
             id="use6086"
             x="0"
             y="0"
             width="1"
             height="1"
             xlink:href="#XMLID_11_" />
        </clipPath>
        <g
           clip-path="url(#XMLID_38_)"
           id="g6088">
          <defs
             id="defs6090">
            <path
               d="m 159.913,201.463 c 46.575,34.697 81.758,46.493 113.893,40.593 32.136,-5.896 43.344,-20.908 51.146,-43.534 7.796,-22.623 -3.806,-55.9 -3.806,-55.9 l 3.648,1.54 c 0.02,0.054 8.407,20.434 8.079,43.782 -0.328,23.455 -13.369,56.591 -48.773,68.401 -29.503,9.84 -60.632,-2.016 -84.554,-14.339 -23.979,-12.357 -40.692,-27.127 -40.738,-27.167 l 1.105,-13.376"
               id="XMLID_13_" />
          </defs>
          <clipPath
             id="XMLID_39_">
            <use
               id="use6094"
               x="0"
               y="0"
               width="1"
               height="1"
               xlink:href="#XMLID_13_" />
          </clipPath>
          <polyline
             id="polyline6096"
             points="168.217,256.275 165.956,255.876 208.399,15.178 210.66,15.577       "
             clip-path="url(#XMLID_39_)"
             style="fill:#6d6f71" />
          <polyline
             id="polyline6098"
             points="170.477,256.674 168.217,256.275 210.66,15.577 212.92,15.979   "
             clip-path="url(#XMLID_39_)"
             style="fill:#808284" />
          <polyline
             id="polyline6100"
             points="172.74,257.073 170.477,256.674 212.92,15.979 215.178,16.375   "
             clip-path="url(#XMLID_39_)"
             style="fill:#939598" />
          <polyline
             id="polyline6102"
             points="175,257.469 172.74,257.073 215.178,16.375 217.441,16.775   "
             clip-path="url(#XMLID_39_)"
             style="fill:#a7a9ac" />
          <polyline
             id="polyline6104"
             points="177.26,257.868 175,257.469 217.441,16.775 219.699,17.174   "
             clip-path="url(#XMLID_39_)"
             style="fill:#bcbec0" />
          <polyline
             id="polyline6106"
             points="179.52,258.268 177.26,257.868 219.699,17.174 221.962,17.572   "
             clip-path="url(#XMLID_39_)"
             style="fill:#d1d3d4" />
        </g>
      </g>
      <g
         id="g6108">
        <defs
           id="defs6110">
          <polyline
             points="324.36,19.323 338.144,19.323 338.163,263.729 324.377,263.729 324.36,19.323   "
             id="XMLID_15_" />
        </defs>
        <clipPath
           id="XMLID_40_">
          <use
             id="use6114"
             x="0"
             y="0"
             width="1"
             height="1"
             xlink:href="#XMLID_15_" />
        </clipPath>
        <g
           clip-path="url(#XMLID_40_)"
           id="g6116">
          <defs
             id="defs6118">
            <path
               d="m 159.913,201.463 c 46.575,34.697 81.758,46.493 113.893,40.593 32.136,-5.896 43.344,-20.908 51.146,-43.534 7.796,-22.623 -3.806,-55.9 -3.806,-55.9 l 3.648,1.54 c 0.02,0.054 8.407,20.434 8.079,43.782 -0.328,23.455 -13.369,56.591 -48.773,68.401 -29.503,9.84 -60.632,-2.016 -84.554,-14.339 -23.979,-12.357 -40.692,-27.127 -40.738,-27.167 l 1.105,-13.376"
               id="XMLID_17_" />
          </defs>
          <clipPath
             id="XMLID_41_">
            <use
               id="use6122"
               x="0"
               y="0"
               width="1"
               height="1"
               xlink:href="#XMLID_17_" />
          </clipPath>
          <rect
             width="2.2969999"
             height="244.409"
             x="331.258"
             y="19.305"
             clip-path="url(#XMLID_41_)"
             id="rect6124"
             style="fill:#939598" />
          <rect
             width="2.299"
             height="244.409"
             x="328.957"
             y="19.305"
             clip-path="url(#XMLID_41_)"
             id="rect6126"
             style="fill:#a7a9ac" />
          <rect
             width="2.2969999"
             height="244.409"
             x="326.66"
             y="19.305"
             clip-path="url(#XMLID_41_)"
             id="rect6128"
             style="fill:#bcbec0" />
          <rect
             width="2.2969999"
             height="244.409"
             x="324.36301"
             y="19.305"
             clip-path="url(#XMLID_41_)"
             id="rect6130"
             style="fill:#d1d3d4" />
        </g>
      </g>
      <path
         d="m 159.913,201.463 c 46.575,34.697 81.758,46.493 113.893,40.593 32.136,-5.896 43.344,-20.908 51.146,-43.534 7.796,-22.623 -3.806,-55.9 -3.806,-55.9 l 3.648,1.54 c 0.02,0.054 8.407,20.434 8.079,43.782 -0.328,23.455 -13.369,56.591 -48.773,68.401 -29.503,9.84 -60.632,-2.016 -84.554,-14.339 -23.979,-12.357 -40.692,-27.127 -40.738,-27.167 l 1.105,-13.376 z"
         id="path6132"
         style="fill:none;stroke:#000000;stroke-width:1.62899995;stroke-miterlimit:3.86400008" />
      <circle
         cx="51.187"
         cy="285.59698"
         r="44.453999"
         id="circle6134" />
      <circle
         cx="51.187"
         cy="285.59698"
         r="44.453999"
         id="circle6136"
         style="fill:none;stroke:#000000;stroke-width:1.62899995;stroke-miterlimit:3.86400008" />
      <circle
         cx="51.188"
         cy="283.96899"
         r="40.897999"
         id="circle6138"
         style="fill:#ffffff" />
      <circle
         cx="51.188"
         cy="283.96899"
         r="40.897999"
         id="circle6140"
         style="fill:none;stroke:#000000;stroke-width:1.49779999;stroke-miterlimit:3.86400008" />
      <g
         id="g6142">
        <defs
           id="defs6144">
          <path
             d="m 15.174,283.021 c 0,-21.585 17.498,-39.086 39.085,-39.086 21.588,0 39.088,17.501 39.088,39.086 0,21.587 -17.5,39.088 -39.088,39.088 -21.587,0 -39.085,-17.501 -39.085,-39.088"
             id="XMLID_19_" />
        </defs>
        <clipPath
           id="XMLID_42_">
          <use
             id="use6148"
             x="0"
             y="0"
             width="1"
             height="1"
             xlink:href="#XMLID_19_" />
        </clipPath>
        <polyline
           id="polyline6150"
           points="62.786,230.126 64.811,228.76 108.526,293.569 106.5,294.938  "
           clip-path="url(#XMLID_42_)"
           style="fill:#e7e7e8" />
        <polyline
           id="polyline6152"
           points="60.76,231.492 62.786,230.126 106.5,294.938 104.476,296.304  "
           clip-path="url(#XMLID_42_)"
           style="fill:#e3e4e5" />
        <polyline
           id="polyline6154"
           points="58.732,232.858 60.76,231.492 104.476,296.304 102.451,297.67  "
           clip-path="url(#XMLID_42_)"
           style="fill:#e1e2e3" />
        <polyline
           id="polyline6156"
           points="56.708,234.224 58.732,232.858 102.451,297.67 100.422,299.033  "
           clip-path="url(#XMLID_42_)"
           style="fill:#dedfe1" />
        <polyline
           id="polyline6158"
           points="54.683,235.59 56.708,234.224 100.422,299.033 98.397,300.401  "
           clip-path="url(#XMLID_42_)"
           style="fill:#dbdcdd" />
        <polyline
           id="polyline6160"
           points="52.658,236.958 54.683,235.59 98.397,300.401 96.373,301.768  "
           clip-path="url(#XMLID_42_)"
           style="fill:#d9dadb" />
        <polyline
           id="polyline6162"
           points="50.633,238.322 52.658,236.958 96.373,301.768 94.348,303.134  "
           clip-path="url(#XMLID_42_)"
           style="fill:#d6d7d9" />
        <polyline
           id="polyline6164"
           points="48.608,239.688 50.633,238.322 94.348,303.134 92.323,304.5  "
           clip-path="url(#XMLID_42_)"
           style="fill:#d4d5d6" />
        <polyline
           id="polyline6166"
           points="46.583,241.054 48.608,239.688 92.323,304.5 90.298,305.865  "
           clip-path="url(#XMLID_42_)"
           style="fill:#d0d2d3" />
        <polyline
           id="polyline6168"
           points="44.557,242.422 46.583,241.054 90.298,305.865 88.272,307.231  "
           clip-path="url(#XMLID_42_)"
           style="fill:#cecfd1" />
        <polyline
           id="polyline6170"
           points="42.532,243.788 44.557,242.422 88.272,307.231 86.248,308.598  "
           clip-path="url(#XMLID_42_)"
           style="fill:#cbcdcf" />
        <polyline
           id="polyline6172"
           points="40.508,245.151 42.532,243.788 86.248,308.598 84.222,309.964  "
           clip-path="url(#XMLID_42_)"
           style="fill:#c8cacb" />
        <polyline
           id="polyline6174"
           points="38.479,246.518 40.508,245.151 84.222,309.964 82.197,311.332  "
           clip-path="url(#XMLID_42_)"
           style="fill:#c5c7c9" />
        <polyline
           id="polyline6176"
           points="36.455,247.886 38.479,246.518 82.197,311.332 80.173,312.695  "
           clip-path="url(#XMLID_42_)"
           style="fill:#c3c5c7" />
        <polyline
           id="polyline6178"
           points="34.43,249.251 36.455,247.886 80.173,312.695 78.145,314.062  "
           clip-path="url(#XMLID_42_)"
           style="fill:#c0c1c3" />
        <polyline
           id="polyline6180"
           points="32.404,250.618 34.43,249.251 78.145,314.062 76.119,315.428  "
           clip-path="url(#XMLID_42_)"
           style="fill:#bdbfc1" />
        <polyline
           id="polyline6182"
           points="30.379,251.983 32.404,250.618 76.119,315.428 74.094,316.796  "
           clip-path="url(#XMLID_42_)"
           style="fill:#bbbcbf" />
        <polyline
           id="polyline6184"
           points="28.354,253.35 30.379,251.983 74.094,316.796 72.069,318.161  "
           clip-path="url(#XMLID_42_)"
           style="fill:#b8babc" />
        <polyline
           id="polyline6186"
           points="26.33,254.715 28.354,253.35 72.069,318.161 70.044,319.525  "
           clip-path="url(#XMLID_42_)"
           style="fill:#b5b7b9" />
        <polyline
           id="polyline6188"
           points="24.305,256.082 26.33,254.715 70.044,319.525 68.019,320.892  "
           clip-path="url(#XMLID_42_)"
           style="fill:#b2b4b7" />
        <polyline
           id="polyline6190"
           points="22.278,257.447 24.305,256.082 68.019,320.892 65.995,322.26  "
           clip-path="url(#XMLID_42_)"
           style="fill:#b0b2b4" />
        <polyline
           id="polyline6192"
           points="20.254,258.813 22.278,257.447 65.995,322.26 63.97,323.625  "
           clip-path="url(#XMLID_42_)"
           style="fill:#adafb1" />
        <polyline
           id="polyline6194"
           points="18.229,260.179 20.254,258.813 63.97,323.625 61.943,324.991  "
           clip-path="url(#XMLID_42_)"
           style="fill:#aaacaf" />
        <polyline
           id="polyline6196"
           points="16.201,261.545 18.229,260.179 61.943,324.991 59.919,326.357  "
           clip-path="url(#XMLID_42_)"
           style="fill:#a8aaac" />
        <polyline
           id="polyline6198"
           points="14.176,262.911 16.201,261.545 59.919,326.357 57.894,327.724  "
           clip-path="url(#XMLID_42_)"
           style="fill:#a5a7a9" />
        <polyline
           id="polyline6200"
           points="12.151,264.277 14.176,262.911 57.894,327.724 55.867,329.089  "
           clip-path="url(#XMLID_42_)"
           style="fill:#a2a4a7" />
        <polyline
           id="polyline6202"
           points="10.126,265.646 12.151,264.277 55.867,329.089 53.84,330.455  "
           clip-path="url(#XMLID_42_)"
           style="fill:#a0a2a5" />
        <polyline
           id="polyline6204"
           points="8.101,267.009 10.126,265.646 53.84,330.455 51.816,331.821  "
           clip-path="url(#XMLID_42_)"
           style="fill:#9da0a2" />
        <polyline
           id="polyline6206"
           points="6.076,268.375 8.101,267.009 51.816,331.821 49.791,333.189  "
           clip-path="url(#XMLID_42_)"
           style="fill:#9a9d9f" />
        <polyline
           id="polyline6208"
           points="4.051,269.741 6.076,268.375 49.791,333.189 47.766,334.553  "
           clip-path="url(#XMLID_42_)"
           style="fill:#989a9d" />
        <polyline
           id="polyline6210"
           points="2.026,271.11 4.051,269.741 47.766,334.553 45.741,335.919  "
           clip-path="url(#XMLID_42_)"
           style="fill:#96989b" />
        <polyline
           id="polyline6212"
           points="0,272.476 2.026,271.11 45.741,335.919 43.716,337.285  "
           clip-path="url(#XMLID_42_)"
           style="fill:#939598" />
      </g>
      <circle
         cx="54.261002"
         cy="283.021"
         r="39.087002"
         id="circle6214"
         style="fill:none;stroke:#000000;stroke-width:1.49779999;stroke-miterlimit:3.86400008" />
      <circle
         cx="53.629002"
         cy="278.40302"
         r="29.552999"
         id="circle6216"
         style="fill:#ffffff" />
      <circle
         cx="53.629002"
         cy="278.40302"
         r="29.552999"
         id="circle6218"
         style="fill:none;stroke:#000000;stroke-width:1.62899995;stroke-miterlimit:3.86400008" />
      <g
         id="g6220">
        <defs
           id="defs6222">
          <path
             d="m 27.332,278.455 c 0,-15.084 12.227,-27.31 27.31,-27.31 15.083,0 27.311,12.226 27.311,27.31 0,15.081 -12.227,27.309 -27.311,27.309 -15.083,0 -27.31,-12.229 -27.31,-27.309"
             id="XMLID_21_" />
        </defs>
        <clipPath
           id="XMLID_43_">
          <use
             id="use6226"
             x="0"
             y="0"
             width="1"
             height="1"
             xlink:href="#XMLID_21_" />
        </clipPath>
        <polyline
           id="polyline6228"
           points="41.242,312.85 38.923,313.742 19.342,262.737 21.662,261.846  "
           clip-path="url(#XMLID_43_)"
           style="fill:#939598" />
        <polyline
           id="polyline6230"
           points="43.56,311.963 41.242,312.85 21.662,261.846 23.979,260.956  "
           clip-path="url(#XMLID_43_)"
           style="fill:#989a9d" />
        <polyline
           id="polyline6232"
           points="45.879,311.07 43.56,311.963 23.979,260.956 26.299,260.066  "
           clip-path="url(#XMLID_43_)"
           style="fill:#9d9fa1" />
        <polyline
           id="polyline6234"
           points="48.197,310.184 45.879,311.07 26.299,260.066 28.617,259.174  "
           clip-path="url(#XMLID_43_)"
           style="fill:#a1a3a6" />
        <polyline
           id="polyline6236"
           points="50.517,309.291 48.197,310.184 28.617,259.174 30.936,258.284  "
           clip-path="url(#XMLID_43_)"
           style="fill:#a6a8ab" />
        <polyline
           id="polyline6238"
           points="52.833,308.401 50.517,309.291 30.936,258.284 33.255,257.397  "
           clip-path="url(#XMLID_43_)"
           style="fill:#abadb0" />
        <polyline
           id="polyline6240"
           points="55.154,307.513 52.833,308.401 33.255,257.397 35.573,256.504  "
           clip-path="url(#XMLID_43_)"
           style="fill:#b0b2b4" />
        <polyline
           id="polyline6242"
           points="57.471,306.623 55.154,307.513 35.573,256.504 37.893,255.613  "
           clip-path="url(#XMLID_43_)"
           style="fill:#b5b7b9" />
        <polyline
           id="polyline6244"
           points="59.791,305.73 57.471,306.623 37.893,255.613 40.21,254.725  "
           clip-path="url(#XMLID_43_)"
           style="fill:#babcbe" />
        <polyline
           id="polyline6246"
           points="62.108,304.843 59.791,305.73 40.21,254.725 42.53,253.833  "
           clip-path="url(#XMLID_43_)"
           style="fill:#bfc1c3" />
        <polyline
           id="polyline6248"
           points="64.426,303.951 62.108,304.843 42.53,253.833 44.848,252.946  "
           clip-path="url(#XMLID_43_)"
           style="fill:#c4c5c8" />
        <polyline
           id="polyline6250"
           points="66.746,303.061 64.426,303.951 44.848,252.946 47.167,252.054  "
           clip-path="url(#XMLID_43_)"
           style="fill:#c9cacc" />
        <polyline
           id="polyline6252"
           points="69.063,302.171 66.746,303.061 47.167,252.054 49.484,251.164  "
           clip-path="url(#XMLID_43_)"
           style="fill:#cecfd1" />
        <polyline
           id="polyline6254"
           points="71.383,301.281 69.063,302.171 49.484,251.164 51.804,250.274  "
           clip-path="url(#XMLID_43_)"
           style="fill:#d4d5d6" />
        <polyline
           id="polyline6256"
           points="73.701,300.392 71.383,301.281 51.804,250.274 54.121,249.385  "
           clip-path="url(#XMLID_43_)"
           style="fill:#d8d9da" />
        <polyline
           id="polyline6258"
           points="76.02,299.502 73.701,300.392 54.121,249.385 56.441,248.493  "
           clip-path="url(#XMLID_43_)"
           style="fill:#dddfe0" />
        <polyline
           id="polyline6260"
           points="78.337,298.61 76.02,299.502 56.441,248.493 58.758,247.605  "
           clip-path="url(#XMLID_43_)"
           style="fill:#e2e3e4" />
        <polyline
           id="polyline6262"
           points="80.657,297.723 78.337,298.61 58.758,247.605 61.078,246.713  "
           clip-path="url(#XMLID_43_)"
           style="fill:#e7e8e9" />
        <polyline
           id="polyline6264"
           points="82.974,296.831 80.657,297.723 61.078,246.713 63.398,245.826  "
           clip-path="url(#XMLID_43_)"
           style="fill:#ededee" />
        <polyline
           id="polyline6266"
           points="85.294,295.941 82.974,296.831 63.398,245.826 65.714,244.934  "
           clip-path="url(#XMLID_43_)"
           style="fill:#f2f2f3" />
        <polyline
           id="polyline6268"
           points="87.614,295.052 85.294,295.941 65.714,244.934 68.033,244.044  "
           clip-path="url(#XMLID_43_)"
           style="fill:#f7f7f8" />
        <polyline
           id="polyline6270"
           points="89.931,294.162 87.614,295.052 68.033,244.044 70.351,243.155  "
           clip-path="url(#XMLID_43_)"
           style="fill:#ffffff" />
      </g>
      <circle
         cx="54.641998"
         cy="278.45499"
         r="27.309999"
         id="circle6272"
         style="fill:none;stroke:#000000;stroke-width:1.62899995;stroke-miterlimit:3.86400008" />
      <g
         id="g6274">
        <defs
           id="defs6276">
          <path
             d="m 29.986,278.403 c 0,-13.058 10.586,-23.642 23.642,-23.642 13.059,0 23.643,10.584 23.643,23.642 0,13.059 -10.584,23.645 -23.643,23.645 -13.056,0 -23.642,-10.586 -23.642,-23.645"
             id="XMLID_23_" />
        </defs>
        <clipPath
           id="XMLID_44_">
          <use
             id="use6280"
             x="0"
             y="0"
             width="1"
             height="1"
             xlink:href="#XMLID_23_" />
        </clipPath>
        <path
           d="m 79.287,278.398 0,0 c 0,14.165 -11.498,25.658 -25.659,25.658 -14.162,0 -25.657,-11.493 -25.657,-25.658 0,-14.162 11.495,-25.656 25.657,-25.656 14.161,0.001 25.659,11.494 25.659,25.656 m 2.724,-0.096 c 0,-15.651 -12.704,-28.356 -28.357,-28.356 -15.654,0 -28.359,12.705 -28.359,28.356 0,15.654 12.705,28.359 28.359,28.359 15.653,0 28.357,-12.705 28.357,-28.359"
           clip-path="url(#XMLID_44_)"
           id="path6282"
           style="fill:#e7e7e8" />
        <path
           d="m 76.585,278.398 0,0 c 0,12.674 -10.286,22.958 -22.957,22.958 -12.673,0 -22.957,-10.284 -22.957,-22.958 0,-12.67 10.283,-22.956 22.957,-22.956 12.671,0.001 22.957,10.286 22.957,22.956 m 2.726,-0.096 c 0,-14.162 -11.495,-25.655 -25.657,-25.655 -14.164,0 -25.659,11.493 -25.659,25.655 0,14.165 11.495,25.658 25.659,25.658 14.162,0 25.657,-11.493 25.657,-25.658"
           clip-path="url(#XMLID_44_)"
           id="path6284"
           style="fill:#d9dbdc" />
        <path
           d="m 73.884,278.398 0,0 c 0,11.182 -9.076,20.258 -20.256,20.258 -11.183,0 -20.259,-9.076 -20.259,-20.258 0,-11.182 9.076,-20.254 20.259,-20.254 11.18,0 20.256,9.073 20.256,20.254 m 2.726,0.054 c 0,-12.673 -10.285,-22.958 -22.957,-22.958 -12.673,0 -22.958,10.285 -22.958,22.958 0,12.673 10.285,22.955 22.958,22.955 12.673,0 22.957,-10.282 22.957,-22.955"
           clip-path="url(#XMLID_44_)"
           id="path6286"
           style="fill:#cdced0" />
        <path
           d="m 71.183,278.398 0,0 c 0,9.69 -7.865,17.558 -17.555,17.558 -9.692,0 -17.557,-7.867 -17.557,-17.558 0,-9.689 7.865,-17.554 17.557,-17.554 9.69,0 17.555,7.865 17.555,17.554 m 2.725,0.054 c 0,-11.184 -9.076,-20.258 -20.254,-20.258 -11.183,0 -20.257,9.074 -20.257,20.258 0,11.179 9.074,20.255 20.257,20.255 11.179,0 20.254,-9.076 20.254,-20.255"
           clip-path="url(#XMLID_44_)"
           id="path6288"
           style="fill:#c0c2c4" />
        <path
           d="m 68.482,278.398 0,0 c 0,8.201 -6.655,14.854 -14.854,14.854 -8.202,0 -14.856,-6.653 -14.856,-14.854 0,-8.198 6.654,-14.854 14.856,-14.854 8.199,0.001 14.854,6.657 14.854,14.854 m 2.726,0.054 c 0,-9.69 -7.866,-17.555 -17.554,-17.555 -9.69,0 -17.556,7.864 -17.556,17.555 0,9.689 7.866,17.555 17.556,17.555 9.688,0 17.554,-7.865 17.554,-17.555"
           clip-path="url(#XMLID_44_)"
           id="path6290"
           style="fill:#b3b5b7" />
        <path
           d="m 65.781,278.398 0,0 c 0,6.71 -5.446,12.154 -12.153,12.154 -6.708,0 -12.156,-5.444 -12.156,-12.154 0,-6.708 5.447,-12.15 12.156,-12.15 6.707,0 12.153,5.442 12.153,12.15 m 2.578,0.054 c 0,-8.2 -6.655,-14.854 -14.854,-14.854 -8.199,0 -14.854,6.654 -14.854,14.854 0,8.198 6.655,14.854 14.854,14.854 8.199,0 14.854,-6.656 14.854,-14.854"
           clip-path="url(#XMLID_44_)"
           id="path6292"
           style="fill:#a7a9ac" />
        <path
           d="m 63.08,278.398 0,0 c 0,5.22 -4.235,9.453 -9.452,9.453 -5.218,0 -9.454,-4.233 -9.454,-9.453 0,-5.217 4.236,-9.45 9.454,-9.45 5.216,0 9.452,4.234 9.452,9.45 m 2.726,0.054 c 0,-6.709 -5.443,-12.154 -12.152,-12.154 -6.709,0 -12.153,5.444 -12.153,12.154 0,6.709 5.444,12.153 12.153,12.153 6.708,0 12.152,-5.444 12.152,-12.153"
           clip-path="url(#XMLID_44_)"
           id="path6294"
           style="fill:#9b9da0" />
        <path
           d="m 60.379,278.398 0,0 c 0,3.726 -3.025,6.753 -6.751,6.753 -3.728,0 -6.753,-3.027 -6.753,-6.753 0,-3.728 3.026,-6.75 6.753,-6.75 3.726,10e-4 6.751,3.023 6.751,6.75 m 2.726,0.054 c 0,-5.22 -4.233,-9.453 -9.452,-9.453 -5.22,0 -9.453,4.233 -9.453,9.453 0,5.217 4.233,9.45 9.453,9.45 5.219,0 9.452,-4.233 9.452,-9.45"
           clip-path="url(#XMLID_44_)"
           id="path6296"
           style="fill:#8f9194" />
        <path
           d="m 57.679,278.398 0,0 c 0,2.237 -1.815,4.052 -4.051,4.052 -2.237,0 -4.052,-1.815 -4.052,-4.052 0,-2.233 1.814,-4.051 4.052,-4.051 2.235,0 4.051,1.818 4.051,4.051 m 2.725,0.054 c 0,-3.729 -3.025,-6.753 -6.75,-6.753 -3.729,0 -6.752,3.024 -6.752,6.753 0,3.725 3.022,6.75 6.752,6.75 3.725,0 6.75,-3.025 6.75,-6.75"
           clip-path="url(#XMLID_44_)"
           id="path6298"
           style="fill:#848688" />
        <path
           d="m 54.977,278.398 0,0 c 0,0.748 -0.604,1.349 -1.349,1.349 -0.747,0 -1.352,-0.602 -1.352,-1.349 0,-0.744 0.605,-1.351 1.352,-1.351 0.746,0 1.349,0.607 1.349,1.351 m 2.726,-0.096 c 0,-2.234 -1.814,-4.049 -4.049,-4.049 -2.237,0 -4.051,1.815 -4.051,4.049 0,2.237 1.814,4.052 4.051,4.052 2.234,0 4.049,-1.815 4.049,-4.052"
           clip-path="url(#XMLID_44_)"
           id="path6300"
           style="fill:#797a7d" />
        <path
           d="m 55.002,278.302 c 0,-0.744 -0.604,-1.351 -1.349,-1.351 -0.747,0 -1.351,0.607 -1.351,1.351 0,0.747 0.604,1.352 1.351,1.352 0.745,0 1.349,-0.605 1.349,-1.352"
           clip-path="url(#XMLID_44_)"
           id="path6302"
           style="fill:#6d6f71" />
      </g>
      <circle
         cx="53.627998"
         cy="278.40302"
         r="23.643"
         id="circle6304"
         style="fill:none;stroke:#000000;stroke-width:1.62899995;stroke-miterlimit:3.86400008" />
      <g
         id="g6306">
        <defs
           id="defs6308">
          <polyline
             points="53.635,306.743 44,333.923 31.726,329.567 41.361,302.392 53.635,306.743   "
             id="XMLID_25_" />
        </defs>
        <clipPath
           id="XMLID_45_">
          <use
             id="use6312"
             x="0"
             y="0"
             width="1"
             height="1"
             xlink:href="#XMLID_25_" />
        </clipPath>
        <polyline
           id="polyline6314"
           points="51.529,305.486 53.805,306.183 45.214,334.282 42.937,333.586  "
           clip-path="url(#XMLID_45_)" />
        <polyline
           id="polyline6316"
           points="49.253,304.789 51.529,305.486 42.937,333.586 40.661,332.893  "
           clip-path="url(#XMLID_45_)"
           style="fill:#4f5051" />
        <polyline
           id="polyline6318"
           points="46.979,304.094 49.253,304.789 40.661,332.893 38.386,332.196  "
           clip-path="url(#XMLID_45_)"
           style="fill:#717375" />
        <polyline
           id="polyline6320"
           points="44.701,303.399 46.979,304.094 38.386,332.196 36.109,331.5  "
           clip-path="url(#XMLID_45_)"
           style="fill:#8f9194" />
        <polyline
           id="polyline6322"
           points="42.426,302.703 44.701,303.399 36.109,331.5 33.835,330.804  "
           clip-path="url(#XMLID_45_)"
           style="fill:#afb1b4" />
        <polyline
           id="polyline6324"
           points="40.151,302.007 42.426,302.703 33.835,330.804 31.56,330.109  "
           clip-path="url(#XMLID_45_)"
           style="fill:#d1d3d4" />
      </g>
      <rect
         width="28.837"
         height="13.024"
         x="28.261999"
         y="311.64301"
         transform="matrix(0.3341,-0.9425,0.9425,0.3341,-271.4517,252.083)"
         id="rect6326"
         style="fill:none;stroke:#000000;stroke-width:1.62899995;stroke-miterlimit:3.86400008" />
      <path
         d="m 145.21,22.162 c 0,0 10.14,0.641 12.064,14.307 1.923,13.666 -0.962,13.344 -0.962,13.344 0,0 -11.426,6.265 -29.575,8.857 -4.487,0.642 -8.856,-8.657 -10.137,-12.383 -1.283,-3.726 -3.088,-9.177 1.602,-12.062 4.688,-2.886 15.588,-8.857 27.008,-12.063"
         id="path6328"
         style="fill:#ffffff" />
      <g
         id="g6330">
        <defs
           id="defs6332">
          <path
             d="m 145.21,22.162 c 0,0 10.14,0.641 12.064,14.307 1.923,13.666 -0.962,13.344 -0.962,13.344 0,0 -11.426,6.265 -29.575,8.857 -4.487,0.642 -8.856,-8.657 -10.137,-12.383 -1.283,-3.726 -3.088,-9.177 1.602,-12.062 4.688,-2.886 15.588,-8.857 27.008,-12.063"
             id="XMLID_27_" />
        </defs>
        <clipPath
           id="XMLID_46_">
          <use
             id="use6336"
             x="0"
             y="0"
             width="1"
             height="1"
             xlink:href="#XMLID_27_" />
        </clipPath>
        <path
           d="m 142.007,23.791 c 0,0 10.085,0.642 12.009,14.308 1.924,13.662 -0.96,13.342 -0.96,13.342"
           clip-path="url(#XMLID_46_)"
           id="path6338"
           style="fill:none;stroke:#000000;stroke-width:1.62899995;stroke-miterlimit:3.86400008" />
      </g>
      <path
         d="m 145.21,22.162 c 0,0 10.14,0.641 12.064,14.307 1.923,13.666 -0.962,13.344 -0.962,13.344 0,0 -11.426,6.265 -29.575,8.857 -4.487,0.642 -8.856,-8.657 -10.137,-12.383 -1.283,-3.726 -3.088,-9.177 1.602,-12.062 4.688,-2.886 15.588,-8.857 27.008,-12.063 z"
         id="path6340"
         style="fill:none;stroke:#000000;stroke-width:1.62899995;stroke-miterlimit:3.86400008" />
      <path
         d="m 320.925,135.968 c 0.021,0.054 8.434,20.434 8.104,43.782 -0.328,23.454 -9.524,50.132 -44.929,61.944 -29.503,9.839 -61.04,-0.28 -84.963,-12.605 -23.979,-12.353 -40.693,-27.122 -40.736,-27.162 l 2.218,-2.426 c 0,0 4.104,3.625 11.152,8.769 29.853,21.791 73.52,42.924 111.259,30.335 42.788,-14.273 48.17,-52.531 38.862,-88.679 -2.004,-7.781 -4.046,-12.73 -4.046,-12.73 l 3.079,-1.228"
         id="path6342" />
      <path
         d="m 114.676,41.279 c 2.124,0 -26.368,8.856 -35.868,34.264 -7.837,20.966 25.574,91.267 116.101,186.281 l 7.729,-12.161 C 112.111,154.646 80.09,95.498 90.23,75.542 c 10.138,-19.958 31.698,-23.166 29.575,-23.166 0,0 2.003,-3.646 0.841,-7.05 -1.162,-3.406 -5.97,-4.047 -5.97,-4.047"
         id="path6344"
         style="fill:#d1d3d4" />
      <g
         id="g6346">
        <defs
           id="defs6348">
          <path
             d="m 114.676,41.279 c 2.124,0 -26.368,8.856 -35.868,34.264 -7.837,20.966 25.574,91.267 116.101,186.281 l 7.729,-12.161 C 112.111,154.646 80.09,95.498 90.23,75.542 c 10.138,-19.958 31.698,-23.166 29.575,-23.166 0,0 2.003,-3.646 0.841,-7.05 -1.162,-3.406 -5.97,-4.047 -5.97,-4.047"
             id="XMLID_29_" />
        </defs>
        <clipPath
           id="XMLID_47_">
          <use
             id="use6352"
             x="0"
             y="0"
             width="1"
             height="1"
             xlink:href="#XMLID_29_" />
        </clipPath>
        <path
           d="m 98.431,130.705 c 0,0 37.343,68.543 95.686,124.028 l 2.822,-3.989 c 0,-0.001 -52.659,-46.978 -98.508,-120.039"
           clip-path="url(#XMLID_47_)"
           id="path6354"
           style="fill:#ffffff" />
      </g>
      <path
         d="m 114.676,41.279 c 2.124,0 -26.368,8.856 -35.868,34.264 -7.837,20.966 25.574,91.267 116.101,186.281 l 7.729,-12.161 C 112.111,154.646 80.09,95.498 90.23,75.542 c 10.138,-19.958 31.698,-23.166 29.575,-23.166 0,0 2.003,-3.646 0.841,-7.05 -1.162,-3.406 -5.97,-4.047 -5.97,-4.047 z"
         id="path6356"
         style="fill:none;stroke:#000000;stroke-width:1.62899995;stroke-miterlimit:3.86400008" />
      <path
         d="m 48.085,335.315 c -0.342,1.036 -15.839,48.519 -15.839,64.939 0,24.125 10.895,58.587 35.777,73.44 43.027,25.688 67.275,-62.993 163.643,18.145 14.013,11.796 32.647,29.854 49.233,37.338 28.852,13.014 65.159,0.498 75.952,-18.935 22.047,-39.69 12.32,-73.465 6.729,-87.723 -4.896,-12.492 -39.118,-76.37 -50.594,-97.691 -21.963,6.001 -49.863,-1.144 -80.407,-23.373 -16.092,-11.716 -31.818,-25.838 -44.839,-40.979 0,0 2.746,-8.329 6.94,-11.428 3.414,-2.524 10.326,-3.453 10.326,-3.453 3.808,4.419 69.505,77.139 107.973,54.767 39.781,-23.135 21.62,-109.23 20.674,-113.291 0,0 6.276,-5.027 11.102,-5.967 4.262,-0.829 11.101,0.81 11.101,0.81 0,0 5.972,25.635 5.521,54.999 -0.562,36.542 -10.991,62.934 -28.199,77.34 4.622,8.588 12.794,23.813 21.297,39.894 29.644,56.04 58.903,101.26 22.302,167.16 -17.513,31.53 -67.502,45.674 -105.251,28.644 -41.3,-18.635 -79.915,-83.544 -128.543,-67.95 -28.802,9.238 -54.94,30.189 -86.64,11.262 C 21.61,472.532 9.455,428.225 9.455,400.255 c 0,-17.925 10.997,-53.925 16.985,-72.08 0,0 7.928,-0.972 12.518,0.714 4.086,1.499 9.127,6.426 9.127,6.426 z"
         id="path6358" />
      <path
         d="m 48.085,335.315 c -0.342,1.036 -15.839,48.519 -15.839,64.939 0,24.125 10.895,58.587 35.777,73.44 43.027,25.688 67.275,-62.993 163.643,18.145 14.013,11.796 32.647,29.854 49.233,37.338 28.852,13.014 65.159,0.498 75.952,-18.935 22.047,-39.69 12.32,-73.465 6.729,-87.723 -4.896,-12.492 -39.118,-76.37 -50.594,-97.691 -21.963,6.001 -49.863,-1.144 -80.407,-23.373 -16.092,-11.716 -31.818,-25.838 -44.839,-40.979 0,0 2.746,-8.329 6.94,-11.428 3.414,-2.524 10.326,-3.453 10.326,-3.453 3.808,4.419 69.505,77.139 107.973,54.767 39.781,-23.135 21.62,-109.23 20.674,-113.291 0,0 6.276,-5.027 11.102,-5.967 4.262,-0.829 11.101,0.81 11.101,0.81 0,0 5.972,25.635 5.521,54.999 -0.562,36.542 -10.991,62.934 -28.199,77.34 4.622,8.588 12.794,23.813 21.297,39.894 29.644,56.04 58.903,101.26 22.302,167.16 -17.513,31.53 -67.502,45.674 -105.251,28.644 -41.3,-18.635 -79.915,-83.544 -128.543,-67.95 -28.802,9.238 -54.94,30.189 -86.64,11.262 C 21.61,472.532 9.455,428.225 9.455,400.255 c 0,-17.925 10.997,-53.925 16.985,-72.08 0,0 7.928,-0.972 12.518,0.714 4.086,1.499 9.127,6.426 9.127,6.426 z"
         id="path6360"
         style="fill:none;stroke:#000000;stroke-width:1.62899995;stroke-miterlimit:3.86400008" />
      <path
         d="m 46.9,476.702 c 0,0 7.273,12.357 26.613,16.414 10.764,2.258 24.353,1.13 24.353,1.13 0,0 -16.96,-2.068 -27.178,-5.649 C 60.899,485.166 46.9,476.702 46.9,476.702"
         id="path6362"
         style="fill:#ffffff" />
      <path
         d="m 361.167,524.248 c 18.671,-16.414 20.402,-45.285 20.402,-45.285 0,0 7.872,24.354 -14.753,48.141 -22.624,23.789 -47.544,15.283 -47.544,15.283 0,0 21.71,-0.393 41.895,-18.139"
         id="path6364"
         style="fill:#ffffff" />
      <path
         d="m 258.104,309.649 c 0,0 19.27,14.155 48.706,10.768 0,0 -1.691,-3.355 -15.278,-3.955 -13.59,-0.598 -19.84,-4.552 -22.661,-5.681 -2.823,-1.132 -10.767,-1.132 -10.767,-1.132"
         id="path6366"
         style="fill:#ffffff" />
      <path
         d="m 147.334,200.33 19.116,23.604 c 0,0 1.923,-9.99 12.102,-3.204 l -19.2,-21.838 c 0,0 -7.416,-6.703 -12.018,1.438 z"
         id="path6368"
         style="fill:#bcbec0" />
      <path
         d="m 147.334,200.33 19.116,23.604 c 0,0 1.923,-9.99 12.102,-3.204 l -19.2,-21.838 c 0,0 -7.416,-6.703 -12.018,1.438 z"
         id="path6370"
         style="fill:none;stroke:#000000;stroke-width:1.62899995;stroke-miterlimit:3.86400008" />
      <path
         d="m 352.354,185.979 -13.067,5.173 C 297.01,47.569 251.776,15.792 245.085,12.926 c -6.697,-2.87 -46.983,6.246 -46.983,6.246 L 191.883,7.231 c 0,0 32.715,-7.286 41.914,-6.33 9.199,0.956 16.849,0 25.093,9.2 8.244,9.199 43.967,37.709 77.186,127.372 8.383,22.623 13.904,39.274 16.278,48.506 z"
         id="path6372"
         style="fill:#d1d3d4" />
      <path
         d="m 352.354,185.979 -13.067,5.173 C 297.01,47.569 251.776,15.792 245.085,12.926 c -6.697,-2.87 -46.983,6.246 -46.983,6.246 L 191.883,7.231 c 0,0 32.715,-7.286 41.914,-6.33 9.199,0.956 16.849,0 25.093,9.2 8.244,9.199 43.967,37.709 77.186,127.372 8.383,22.623 13.904,39.274 16.278,48.506 z"
         id="path6374"
         style="fill:none;stroke:#000000;stroke-width:1.62899995;stroke-miterlimit:3.86400008" />
      <path
         d="m 331.19,171.721 c 2.526,-18.468 11.899,-19.48 11.899,-19.48 l -9.654,-26.608 c 0,0 -14.147,-8.813 -14.988,12.18 l 12.743,33.908 z"
         id="path6376"
         style="fill:#bcbec0" />
      <path
         d="m 331.19,171.721 c 2.526,-18.468 11.899,-19.48 11.899,-19.48 l -9.654,-26.608 c 0,0 -14.147,-8.813 -14.988,12.18 l 12.743,33.908 z"
         id="path6378"
         style="fill:none;stroke:#000000;stroke-width:1.62899995;stroke-miterlimit:3.86400008" />
      <path
         d="m 253.623,16.472 c 0,0 17.384,10.288 29.403,30.017 12.017,19.732 25.376,47.791 25.376,47.791 0,0 -26.082,-45.615 -34.713,-57.126 -5.03,-6.706 -20.066,-20.682 -20.066,-20.682"
         id="path6380"
         style="fill:#ffffff" />
      <path
         d="m 203.598,25.689 c -2.886,3.848 -20.596,14.949 -27.331,16.55 -6.731,1.604 -9.817,-2.565 -11.743,-6.09 -1.923,-3.528 -5.017,-16.77 2.247,-21.239 13.023,-8.016 27.65,-10.581 27.65,-10.581 0,0 12.701,3.327 9.177,21.36"
         id="path6382"
         style="fill:#ffffff" />
      <g
         id="g6384">
        <defs
           id="defs6386">
          <path
             d="m 203.598,25.689 c -2.886,3.848 -20.596,14.949 -27.331,16.55 -6.731,1.604 -9.817,-2.565 -11.743,-6.09 -1.923,-3.528 -5.017,-16.77 2.247,-21.239 13.023,-8.016 27.65,-10.581 27.65,-10.581 0,0 12.701,3.327 9.177,21.36"
             id="XMLID_31_" />
        </defs>
        <clipPath
           id="XMLID_48_">
          <use
             id="use6390"
             x="0"
             y="0"
             width="1"
             height="1"
             xlink:href="#XMLID_31_" />
        </clipPath>
        <ellipse
           cx="171.039"
           cy="28.195999"
           rx="10.039"
           ry="14.568"
           clip-path="url(#XMLID_48_)"
           id="ellipse6392"
           style="fill:none;stroke:#000000;stroke-width:1.62899995;stroke-miterlimit:3.86400008" />
      </g>
      <path
         d="m 203.598,25.689 c -2.886,3.848 -20.596,14.949 -27.331,16.55 -6.731,1.604 -9.817,-2.565 -11.743,-6.09 -1.923,-3.528 -5.017,-16.77 2.247,-21.239 13.023,-8.016 27.65,-10.581 27.65,-10.581 0,0 12.701,3.327 9.177,21.36 z"
         id="path6394"
         style="fill:none;stroke:#000000;stroke-width:1.62899995;stroke-miterlimit:3.86400008" />
      <path
         d="m 169.013,28.196 c 0,-2.979 1.267,-5.393 2.828,-5.393 1.559,0 2.825,2.414 2.825,5.393 0,2.975 -1.266,5.389 -2.825,5.389 -1.562,-10e-4 -2.828,-2.415 -2.828,-5.389 z"
         id="path6396" />
      <path
         d="m 169.013,28.196 c 0,-2.979 1.267,-5.393 2.828,-5.393 1.559,0 2.825,2.414 2.825,5.393 0,2.975 -1.266,5.389 -2.825,5.389 -1.562,-10e-4 -2.828,-2.415 -2.828,-5.389 z"
         id="path6398"
         style="fill:none;stroke:#000000;stroke-width:1.62899995;stroke-miterlimit:3.86400008" />
    </g>
    <rect
       width="11"
       height="131"
       x="255"
       y="433.36218"
       id="rect6618"
       style="fill:#2b0000;stroke:none" />
    <rect
       width="166"
       height="15"
       x="203"
       y="433.36218"
       id="rect6620"
       style="fill:#2b0000;stroke:none" />
  </g>
</svg>
